<?xml version="1.0" encoding="UTF-8"?>
<svg xmlns="http://www.w3.org/2000/svg" width="45" height="44" viewBox="0 0 45 44" fill="none">
  <path d="M11.4893 34.7647C11.6089 34.6449 11.7749 34.5762 11.9441 34.5762C12.1132 34.5762 12.2792 34.6449 12.3989 34.7647C12.5186 34.8843 12.5874 35.0503 12.5874 35.2195C12.5874 35.3887 12.5185 35.5546 12.3989 35.6742C12.2793 35.794 12.1133 35.8628 11.9441 35.8628C11.7749 35.8628 11.6089 35.7939 11.4893 35.6742C11.3696 35.5546 11.3008 35.3887 11.3008 35.2195C11.3008 35.0503 11.3696 34.8843 11.4893 34.7647Z" fill="#A1A3A8"></path>
  <path d="M36.2237 18.0928C36.3433 17.973 36.5093 17.9043 36.6785 17.9043C36.8483 17.9043 37.0136 17.973 37.1332 18.0928C37.2535 18.2124 37.3224 18.3784 37.3224 18.5477C37.3224 18.7168 37.2535 18.8827 37.1332 19.0024C37.0136 19.1221 36.8483 19.1909 36.6785 19.1909C36.5093 19.1909 36.3433 19.122 36.2237 19.0024C36.104 18.8827 36.0352 18.7168 36.0352 18.5477C36.0352 18.3784 36.104 18.2124 36.2237 18.0928Z" fill="#A1A3A8"></path>
  <path fill-rule="evenodd" clip-rule="evenodd" d="M39.2194 12.9238C39.3901 12.9238 39.5538 12.9916 39.6744 13.1123C39.7951 13.2329 39.8628 13.3965 39.8629 13.5671V37.7927C39.8629 38.1479 39.5749 38.4361 39.2196 38.4361H19.7999C19.0164 38.4361 18.2599 38.1524 17.6693 37.6375L16.9044 36.9705C16.696 37.8109 15.9355 38.4359 15.0314 38.4359H8.85568C7.7915 38.4359 6.92573 37.5701 6.92578 36.506V26.0201C6.92578 24.956 7.7915 24.0903 8.85568 24.0903H15.0314C15.6922 24.0903 16.2765 24.4244 16.6245 24.9325L18.6676 22.8894C18.8979 22.659 19.3706 22.2698 20.1788 21.8382C21.4122 21.1794 22.7509 20.7083 22.7509 20.7083V13.568C22.7509 13.2127 23.039 12.9247 23.3941 12.9247L39.2194 12.9238ZM8.85561 37.1493H15.0313C15.386 37.1493 15.6746 36.8607 15.6746 36.506V26.0202C15.6746 25.6655 15.3861 25.3769 15.0314 25.3769H12.5868V32.7876C12.5868 33.1429 12.2987 33.4309 11.9435 33.4309C11.5882 33.4309 11.3002 33.1429 11.3002 32.7876V25.3769H8.85561C8.50089 25.3769 8.2123 25.6655 8.2123 26.0202V36.506C8.2123 36.8607 8.50089 37.1493 8.85561 37.1493ZM18.5148 36.6678L16.9612 35.3129V26.4153L19.0447 24.3013C19.0447 24.3013 19.9297 23.5351 20.5258 23.1989C21.782 22.4903 22.7491 22.212 22.7491 22.212V23.9414L22.1258 25.5998C22.1987 25.8845 22.4552 26.0838 22.7491 26.0838L33.5504 26.0844C34.0471 26.0844 34.4511 26.4884 34.4511 26.9851C34.4511 27.4817 34.0471 27.8857 33.5504 27.8857H27.0697C26.7144 27.8857 26.4263 28.1739 26.4263 28.5291C26.4263 28.8844 26.7144 29.1724 27.0697 29.1724H35.564C36.0606 29.1724 36.4646 29.5764 36.4646 30.073C36.4646 30.5697 36.0606 30.9737 35.564 30.9737H27.0697C26.7144 30.9737 26.4263 31.2617 26.4263 31.617C26.4263 31.9722 26.7144 32.2604 27.0697 32.2604H34.1875C34.6841 32.2604 35.0881 32.6644 35.0881 33.161C35.0881 33.6577 34.6841 34.0616 34.1875 34.0616H27.0697C26.7144 34.0616 26.4263 34.3497 26.4263 34.705C26.4263 35.0602 26.7144 35.3482 27.0697 35.3482H31.9931C32.4898 35.3482 32.8937 35.7522 32.8937 36.2489C32.8937 36.7455 32.4898 37.1496 31.9931 37.1496H19.7998C19.3273 37.1493 18.8709 36.9784 18.5148 36.6678ZM34.1803 36.2487C34.1803 36.5698 34.1103 36.8745 33.9855 37.1493H38.5762V14.484L29.7519 14.4845V24.7979H33.5503C34.7563 24.7979 35.7375 25.7791 35.7375 26.9851C35.7375 27.3061 35.6675 27.6108 35.5639 27.8857C35.7249 27.8857 35.8816 27.9037 36.0327 27.9368V20.6165C36.0327 20.2612 36.3208 19.9731 36.6761 19.9731C37.0314 19.9731 37.3195 20.2612 37.3195 20.6165V28.77C37.5905 29.1341 37.7512 29.5851 37.7512 30.073C37.7512 31.0787 37.0687 31.9275 36.1426 32.1819C36.2907 32.4767 36.3747 32.809 36.3747 33.1609C36.3747 34.3669 35.3935 35.3481 34.1875 35.3481H33.9855C34.1103 35.623 34.1803 35.9277 34.1803 36.2487ZM26.1767 24.7979V14.4847L24.0376 14.4848V24.7979H26.1767Z" fill="#A1A3A8"></path>
</svg>
