<?xml version="1.0" encoding="UTF-8"?>
<svg xmlns="http://www.w3.org/2000/svg" width="45" height="44" viewBox="0 0 45 44" fill="none">
  <path d="M22.5926 7.5625C22.9607 7.5625 23.2592 7.87031 23.2592 8.25C23.2592 8.62969 22.9607 8.9375 22.5926 8.9375H12.2018C11.8336 8.9375 11.5352 8.62969 11.5352 8.25C11.5352 7.87031 11.8336 7.5625 12.2018 7.5625H22.5926Z" fill="#A1A3A8"></path>
  <path fill-rule="evenodd" clip-rule="evenodd" d="M37.2154 20.9483V16.8355L33.731 17.9722V22.1139L34.4993 21.8522C34.8489 21.7331 35.2259 21.9289 35.3414 22.2895C35.4569 22.65 35.267 23.0388 34.9174 23.1579L33.2734 23.7178C32.8421 23.8647 32.3977 23.5334 32.3977 23.065V18.4071L28.5851 19.651C28.5954 19.6988 28.6007 19.7486 28.6007 19.7996V29.621C28.6007 30.0006 28.3023 30.3085 27.9341 30.3085C27.5659 30.3085 27.2674 30.0006 27.2674 29.621V19.7996C27.2674 19.7676 27.2695 19.7361 27.2737 19.7051L16.247 16.0889C15.8962 15.9738 15.7022 15.5872 15.8138 15.2254C15.9254 14.8635 16.3002 14.6634 16.6511 14.7785L27.8458 18.4499L30.8305 17.4763L18.3245 13.3556L13.7611 14.8332V18.146C13.7611 18.5257 13.4626 18.8335 13.0944 18.8335C12.7262 18.8335 12.4277 18.5257 12.4277 18.146V14.3285C12.4277 14.0282 12.6168 13.7625 12.8947 13.6726L18.1915 11.9574C18.2113 11.9511 18.2309 11.9457 18.2506 11.9413L23.7249 10.072C23.7497 10.0635 23.7746 10.0566 23.7995 10.0512L27.6294 8.69916C27.7642 8.6516 27.9101 8.64977 28.0459 8.69398L42.9793 13.5534C43.2567 13.6437 43.4453 13.909 43.4453 14.209V14.2839C43.4455 14.2945 43.4455 14.3051 43.4453 14.3157V30.9742C43.4453 31.274 43.2569 31.5392 42.9797 31.6297L28.0463 36.5012C27.9147 36.5442 27.7734 36.5439 27.6419 36.5005L12.8948 31.6289C12.6188 31.5377 12.4315 31.273 12.4315 30.9742V28.7051C12.4315 28.3253 12.73 28.0176 13.0982 28.0176C13.4664 28.0176 13.7649 28.3253 13.7649 28.7051V30.4725L27.2674 34.933V32.3835C27.2674 32.0038 27.5659 31.696 27.9341 31.696C28.3023 31.696 28.6007 32.0038 28.6007 32.3835V34.8783L42.1119 30.4706V15.2382L38.5487 16.4006V21.4346C38.5487 21.726 38.3705 21.9857 38.1041 22.0828L36.8519 22.5389C36.5047 22.6652 36.1239 22.4776 36.0013 22.1195C35.8787 21.7615 36.0607 21.3688 36.4079 21.2423L37.2154 20.9483ZM25.2739 10.9841L37.9391 15.1573L40.7047 14.2551L27.8538 10.0733L25.2739 10.9841ZM23.1335 11.7223L20.4891 12.6253L33.0319 16.7581L35.7378 15.8754L23.1335 11.7223Z" fill="#A1A3A8"></path>
  <path d="M20.0585 20.3496C20.0585 19.97 19.7599 19.6621 19.3918 19.6621H7.40104C7.03284 19.6621 6.73438 19.97 6.73438 20.3496C6.73438 20.7292 7.03284 21.0371 7.40104 21.0371H19.3918C19.7599 21.0371 20.0585 20.7292 20.0585 20.3496Z" fill="#A1A3A8"></path>
  <path d="M12.7254 22.6875C13.0936 22.6875 13.392 22.9954 13.392 23.375C13.392 23.7546 13.0936 24.0625 12.7254 24.0625H2.33464C1.96644 24.0625 1.66797 23.7546 1.66797 23.375C1.66797 22.9954 1.96644 22.6875 2.33464 22.6875H12.7254Z" fill="#A1A3A8"></path>
  <path d="M5.40104 21.0371C5.76923 21.0371 6.06771 20.7292 6.06771 20.3496C6.06771 19.97 5.76923 19.6621 5.40104 19.6621C5.03284 19.6621 4.73438 19.97 4.73438 20.3496C4.73438 20.7292 5.03284 21.0371 5.40104 21.0371Z" fill="#A1A3A8"></path>
  <path d="M7.9349 26.4004C7.9349 26.78 7.63642 27.0879 7.26823 27.0879C6.90003 27.0879 6.60156 26.78 6.60156 26.4004C6.60156 26.0208 6.90003 25.7129 7.26823 25.7129C7.63642 25.7129 7.9349 26.0208 7.9349 26.4004Z" fill="#A1A3A8"></path>
  <path d="M16.5923 26.4004C16.5923 26.0208 16.2938 25.7129 15.9256 25.7129H9.26823C8.90003 25.7129 8.60156 26.0208 8.60156 26.4004C8.60156 26.78 8.90003 27.0879 9.26823 27.0879H15.9256C16.2938 27.0879 16.5923 26.78 16.5923 26.4004Z" fill="#A1A3A8"></path>
  <path d="M12.8595 11.5508C12.8595 11.1711 12.561 10.8633 12.1928 10.8633H7.13542C6.76722 10.8633 6.46875 11.1711 6.46875 11.5508C6.46875 11.9305 6.76722 12.2383 7.13542 12.2383H12.1928C12.561 12.2383 12.8595 11.9305 12.8595 11.5508Z" fill="#A1A3A8"></path>
</svg>
