<svg width="14" height="9" viewBox="0 0 14 9" fill="none" xmlns="http://www.w3.org/2000/svg">
<path d="M1 2.25H10C10.4125 2.25 10.75 1.9125 10.75 1.5C10.75 1.0875 10.4125 0.75 10 0.75H1C0.5875 0.75 0.25 1.0875 0.25 1.5C0.25 1.9125 0.5875 2.25 1 2.25ZM1 5.25H10C10.4125 5.25 10.75 4.9125 10.75 4.5C10.75 4.0875 10.4125 3.75 10 3.75H1C0.5875 3.75 0.25 4.0875 0.25 4.5C0.25 4.9125 0.5875 5.25 1 5.25ZM1 8.25H10C10.4125 8.25 10.75 7.9125 10.75 7.5C10.75 7.0875 10.4125 6.75 10 6.75H1C0.5875 6.75 0.25 7.0875 0.25 7.5C0.25 7.9125 0.5875 8.25 1 8.25ZM12.25 8.25H13.75V6.75H12.25V8.25ZM12.25 0.75V2.25H13.75V0.75H12.25ZM12.25 5.25H13.75V3.75H12.25V5.25Z" fill="#263238"/>
</svg>
