<?xml version="1.0" encoding="UTF-8"?>
<svg xmlns="http://www.w3.org/2000/svg" width="45" height="44" viewBox="0 0 45 44" fill="none">
  <path d="M27.9929 14.1953C27.6667 13.953 27.2102 14.027 26.9734 14.3606L21.059 22.6876L18.2771 20.4295C17.9614 20.1732 17.5025 20.2271 17.2518 20.55C17.0014 20.8731 17.0542 21.3425 17.3699 21.5988L20.7481 24.3411C21.0734 24.6051 21.5481 24.5386 21.7923 24.1951L28.1542 15.2381C28.3913 14.9045 28.3187 14.4376 27.9929 14.1953Z" fill="#A1A3A8"></path>
  <path d="M22.8265 10.1484C23.1604 10.1484 23.4313 10.4237 23.4313 10.7636C23.4313 11.1035 23.1604 11.3788 22.8265 11.3788C18.531 11.3788 15.0494 14.9158 15.0494 19.2784C15.0494 23.641 18.531 27.1781 22.8265 27.1781C27.122 27.1781 30.6036 23.641 30.6036 19.2784C30.6036 18.9385 30.8745 18.6632 31.2084 18.6632C31.5422 18.6632 31.8132 18.9385 31.8132 19.2784C31.8132 24.3211 27.7894 28.4084 22.8265 28.4084C17.8636 28.4084 13.8398 24.3211 13.8398 19.2784C13.8398 14.2357 17.8636 10.1484 22.8265 10.1484Z" fill="#A1A3A8"></path>
  <path d="M24.4882 10.4044C24.6122 10.2768 24.7842 10.2031 24.9596 10.2031C25.1351 10.2031 25.3068 10.2768 25.4311 10.4044C25.5548 10.5323 25.6263 10.7097 25.6263 10.8914C25.6263 11.0721 25.5548 11.2487 25.4311 11.3774C25.3068 11.5053 25.1351 11.5781 24.9596 11.5781C24.7842 11.5781 24.6122 11.5053 24.4882 11.3774C24.3644 11.2487 24.293 11.0716 24.293 10.8914C24.293 10.7097 24.3644 10.5323 24.4882 10.4044Z" fill="#A1A3A8"></path>
  <path fill-rule="evenodd" clip-rule="evenodd" d="M34.1164 23.9289C34.1141 23.9119 34.1116 23.895 34.1006 23.8221C33.9646 22.9053 33.954 22.5448 34.0577 22.1482C34.1564 21.7717 34.3374 21.475 34.8908 20.7721C35.6121 19.8558 35.7876 19.522 35.7873 19.0025C35.7873 18.4833 35.6118 18.1495 34.8905 17.2332L34.8768 17.2156C34.8681 17.2044 34.8593 17.1934 34.8313 17.1581C34.3417 16.5344 34.1524 16.2187 34.0577 15.857C33.986 15.5831 33.9724 15.2683 34.0129 14.8497C34.0294 14.6792 34.0492 14.5304 34.1006 14.1834C34.2708 13.0386 34.2606 12.6797 34.0169 12.2499C33.7774 11.8272 33.4444 11.6138 32.4793 11.2293C32.4541 11.2195 32.454 11.2194 32.3996 11.1977C31.5617 10.8652 31.2534 10.6967 30.975 10.4129C30.6969 10.1288 30.5324 9.81475 30.2065 8.95922L30.1753 8.877C29.7988 7.89195 29.5897 7.55205 29.1756 7.3073C28.775 7.0708 28.3806 7.05403 27.3617 7.20968C27.33 7.21458 27.3297 7.21462 27.2612 7.22535L27.2593 7.22563C26.9414 7.27458 26.7972 7.29438 26.6318 7.31115C26.2204 7.35268 25.911 7.3392 25.6422 7.26578C25.2732 7.16513 24.9822 6.98005 24.2937 6.41548C23.3961 5.67903 23.0694 5.5 22.5609 5.5C22.1172 5.5 21.7297 5.69277 21.0894 6.2029C21.0257 6.2535 20.9633 6.30437 20.8281 6.4152C20.1393 6.98005 19.8486 7.16485 19.4796 7.2655C19.091 7.37165 18.7374 7.36065 17.8398 7.22178C16.7185 7.04825 16.3673 7.05842 15.9462 7.30702C15.5177 7.5603 15.3292 7.87298 14.9153 8.95895C14.5897 9.81393 14.4249 10.1282 14.1468 10.4123C13.8921 10.6725 13.5636 10.8595 12.9084 11.1229C12.8593 11.1427 12.8204 11.1584 12.7228 11.1969L12.7045 11.2044C12.6927 11.2092 12.6808 11.2139 12.6425 11.229C11.6774 11.6132 11.3444 11.8266 11.1047 12.2493C10.8729 12.6585 10.8564 13.0614 11.0089 14.1023L11.0244 14.2062C11.0727 14.5305 11.0919 14.6781 11.1084 14.8467C11.1492 15.2666 11.1359 15.5823 11.0639 15.8568C10.9647 16.2354 10.7812 16.5338 10.1943 17.2796C10.1188 17.3756 10.0711 17.4369 10.0236 17.4991C9.52278 18.1536 9.33398 18.5493 9.33398 19.0025C9.33398 19.4554 9.52278 19.8512 10.022 20.5037C10.0719 20.5695 10.1217 20.6333 10.2308 20.7719C10.7839 21.4745 10.9652 21.7715 11.0639 22.1482C11.1356 22.4224 11.1489 22.7373 11.1084 23.1564C11.0919 23.3266 11.0724 23.4751 11.0209 23.8219C10.8508 24.9667 10.8609 25.3253 11.1044 25.7551C11.3441 26.1781 11.6769 26.3912 12.6423 26.7757C12.6674 26.7857 12.6676 26.7858 12.7213 26.8071C13.5589 27.1399 13.8684 27.3083 14.1465 27.5924C14.4246 27.8762 14.5892 28.1905 14.915 29.0458C14.9246 29.0714 14.9246 29.0714 14.9462 29.128C15.3228 30.1133 15.5318 30.4532 15.946 30.6977C16.3465 30.9345 16.7412 30.951 17.7604 30.7953C17.792 30.7904 17.7928 30.7904 17.863 30.7797C18.1812 30.7304 18.326 30.7104 18.4918 30.6938C18.6454 30.6782 18.7812 30.6705 18.907 30.6705C19.1225 30.6705 19.3097 30.693 19.4793 30.7392C19.8484 30.8399 20.1393 31.025 20.8278 31.5898C21.7254 32.326 22.0521 32.505 22.5606 32.505C23.0694 32.505 23.3961 32.326 24.2937 31.5898L24.3118 31.5751L24.3673 31.5293C24.9782 31.0294 25.2876 30.836 25.642 30.7395C26.0305 30.6334 26.3836 30.6444 27.282 30.7832C28.403 30.9568 28.7542 30.9466 29.1753 30.698C29.6038 30.4447 29.7924 30.132 30.2062 29.046C30.5318 28.1911 30.6966 27.8767 30.9748 27.5927C31.2532 27.3086 31.5609 27.1406 32.3988 26.8078L32.417 26.8005L32.4766 26.777L32.4793 26.7759C33.4444 26.3915 33.7772 26.1783 34.0169 25.7557C34.2486 25.3465 34.2652 24.9436 34.1188 23.9456L34.1164 23.9289ZM34.6606 19.0028C34.6609 19.1653 34.4886 19.4464 34.0126 20.0513C33.3788 20.8566 33.126 21.2531 32.9692 21.8512C32.8078 22.4675 32.8321 22.952 32.9894 24.0135L32.9972 24.0651L33.0046 24.1158C33.0972 24.7483 33.1033 25.0709 33.0417 25.1796C32.9737 25.2995 32.6908 25.4568 32.07 25.7043L32.0304 25.7199L31.9902 25.7359C31.0345 26.1154 30.6148 26.3332 30.1782 26.7792C29.7417 27.2247 29.5278 27.6534 29.1561 28.6289C28.8862 29.3375 28.7356 29.6285 28.611 29.7022C28.4958 29.7701 28.1758 29.758 27.4508 29.6458C26.4294 29.4877 25.9548 29.4632 25.351 29.6279C24.787 29.7819 24.3716 30.0514 23.6628 30.6317C23.6252 30.6625 23.6252 30.6625 23.5881 30.6928C22.9953 31.1792 22.7198 31.3547 22.5606 31.3547C22.4014 31.3547 22.1262 31.179 21.5334 30.6928C20.7446 30.0459 20.3561 29.7877 19.7702 29.6279C19.498 29.5534 19.2137 29.5201 18.907 29.5201C18.7401 29.5201 18.5673 29.5301 18.3809 29.549C18.1836 29.5688 18.0177 29.5922 17.6521 29.6486C17.6268 29.6526 17.6142 29.6546 17.6016 29.6565C17.5892 29.6585 17.5766 29.6603 17.5518 29.664C16.9324 29.7586 16.6164 29.7646 16.51 29.7019C16.3924 29.6324 16.2382 29.3439 15.9958 28.71L15.9649 28.6286C15.5932 27.6529 15.3796 27.2245 14.943 26.7787C14.5065 26.3329 14.0865 26.1148 13.1308 25.7353L13.091 25.7197L13.0516 25.704C12.4305 25.4565 12.1479 25.2992 12.0796 25.179C12.0129 25.0613 12.0247 24.7346 12.1383 23.9709C12.1873 23.6404 12.21 23.4713 12.2297 23.2697C12.2817 22.7321 12.2655 22.2835 12.1521 21.851C11.9956 21.2528 11.7425 20.856 11.0729 20.0051C11.0028 19.916 10.9559 19.8561 10.91 19.7959C10.5996 19.39 10.4607 19.1326 10.4607 19.0025C10.4607 18.8721 10.5999 18.6145 10.9116 18.2072C10.9569 18.1475 11.0033 18.0881 11.1092 17.9537C11.7428 17.1485 11.9956 16.7519 12.1524 16.1538C12.2657 15.7209 12.2817 15.2719 12.2295 14.7331C12.21 14.5321 12.1873 14.3635 12.1321 13.9915L12.1244 13.9399L12.1169 13.8892C12.0244 13.2566 12.0185 12.9341 12.0799 12.8254C12.1479 12.7055 12.4308 12.5483 13.0516 12.3008C13.0912 12.2851 13.0913 12.2851 13.131 12.2693C13.2143 12.2363 13.2573 12.219 13.3027 12.2008L13.3215 12.1932C14.0913 11.8836 14.5417 11.6361 14.9433 11.2258C15.3801 10.78 15.5937 10.3515 15.9654 9.37612C16.2353 8.66745 16.386 8.3765 16.5105 8.3028C16.626 8.2346 16.9457 8.24698 17.6708 8.35918C18.6913 8.51702 19.1668 8.54177 19.7705 8.37705C20.3564 8.21728 20.7446 7.95905 21.5788 7.27512C21.6654 7.2039 21.7241 7.15633 21.7825 7.10985C22.1809 6.7925 22.4332 6.65032 22.5609 6.65032C22.7201 6.65032 22.9953 6.82605 23.5884 7.31225C24.3769 7.95905 24.7654 8.21727 25.3513 8.37732C25.7753 8.49282 26.2153 8.50932 26.7428 8.45597C26.9398 8.43617 27.1052 8.4128 27.47 8.35643C27.5192 8.3489 27.5208 8.34867 27.5702 8.34102C28.1894 8.24642 28.5052 8.24037 28.6116 8.30335C28.7292 8.37265 28.8833 8.6614 29.1257 9.29527L29.1412 9.33564L29.1566 9.3764C29.5284 10.3524 29.742 10.7806 30.1785 11.2263C30.615 11.6721 31.0348 11.8902 31.9905 12.2697C32.0296 12.2853 32.0305 12.2856 32.0673 12.3002L32.07 12.3013C32.691 12.5485 32.9737 12.7058 33.0417 12.826C33.1086 12.944 33.0966 13.2704 32.9833 14.0344C32.9342 14.3652 32.9113 14.5346 32.8918 14.7364C32.8398 15.2738 32.8561 15.722 32.9692 16.1543C33.1201 16.7302 33.3841 17.1542 33.9524 17.8777L34.0124 17.9539C34.4886 18.5589 34.6606 18.8403 34.6606 19.0028Z" fill="#A1A3A8"></path>
  <path d="M29.8212 31.377C29.4868 31.377 29.2159 31.6487 29.2159 31.9836V36.8814L23.0178 35.4368C22.9282 35.4159 22.8351 35.4156 22.7455 35.4362L16.4372 36.8838V33.8707C16.4372 33.5357 16.166 33.2643 15.8319 33.2643C15.4975 33.2643 15.2266 33.5357 15.2266 33.8707V37.645C15.2266 38.0347 15.5879 38.3235 15.9668 38.2366L22.8796 36.6501L29.6842 38.236C30.0636 38.3246 30.4266 38.0358 30.4266 37.645V31.9836C30.4266 31.6487 30.1556 31.377 29.8212 31.377Z" fill="#A1A3A8"></path>
  <path d="M15.8932 31.377C15.7178 31.377 15.5458 31.4507 15.4218 31.5783C15.298 31.7061 15.2266 31.8835 15.2266 32.0653C15.2266 32.2454 15.298 32.4225 15.4218 32.5512C15.5458 32.6791 15.7178 32.752 15.8932 32.752C16.0687 32.752 16.2404 32.6791 16.3647 32.5512C16.4884 32.4225 16.5599 32.246 16.5599 32.0653C16.5599 31.8835 16.4884 31.7061 16.3647 31.5783C16.2404 31.4507 16.0687 31.377 15.8932 31.377Z" fill="#A1A3A8"></path>
</svg>
