<?xml version="1.0" encoding="UTF-8"?>
<svg xmlns="http://www.w3.org/2000/svg" width="45" height="44" viewBox="0 0 45 44" fill="none">
  <path fill-rule="evenodd" clip-rule="evenodd" d="M37.5641 10.5534C37.6449 10.6269 37.7045 10.722 37.7366 10.8525C37.7543 10.9127 37.7641 10.9751 37.7655 11.038V27.6543C37.7653 27.9564 37.575 28.2234 37.2955 28.314C37.2955 28.314 35.9282 28.7635 35.9158 28.7671C35.559 28.8713 35.1879 28.6575 35.0869 28.2895C34.9858 27.9216 35.1931 27.5389 35.5499 27.4347L36.4227 27.1474V11.9851L32.9505 13.1234V18.1574C32.9502 18.4595 32.7599 18.7265 32.4805 18.8171L31.2491 19.2208C31.1842 19.2424 31.1162 19.2534 31.0478 19.2533C30.7562 19.2525 30.4983 19.0575 30.4099 18.7708C30.2977 18.4063 30.493 18.017 30.8463 17.9013L31.609 17.6513V13.5664L28.1407 14.7047V18.7895L28.8323 18.5624C29.1857 18.4464 29.5631 18.648 29.6755 19.0124C29.7879 19.3768 29.5925 19.7662 29.2391 19.8819L27.6729 20.397C27.6077 20.4182 27.5398 20.4292 27.4714 20.4296C27.1007 20.4296 26.8001 20.1197 26.8001 19.7373V15.1442L22.9955 16.3905V24.6195C22.9955 25.0019 22.6949 25.3118 22.3241 25.3118C21.9534 25.3118 21.6527 25.0019 21.6527 24.6195V16.3905L10.7055 12.7993C10.3522 12.6834 10.1568 12.2942 10.2692 11.9297C10.3815 11.5653 10.759 11.3638 11.1124 11.4797L22.3241 15.1574L25.2559 14.1958L12.7015 10.0757L8.22555 11.5441V27.1481L9.73273 27.7091V23.4699C9.73273 23.1137 10.0127 22.825 10.3581 22.825C10.7034 22.825 10.9834 23.1137 10.9834 23.4699V28.1544L10.9833 28.1638C10.9833 28.1674 10.9832 28.171 10.9831 28.1746L12.9455 28.9051C13.0407 28.9363 13.1285 28.9905 13.1996 29.0638C13.3159 29.1837 13.3827 29.3501 13.3827 29.5201C13.3827 29.6897 13.3159 29.8554 13.1996 29.9758C13.0834 30.0957 12.9221 30.1641 12.7577 30.1641C12.6766 30.1641 12.5962 30.1474 12.5216 30.1161L7.35277 28.314C7.07332 28.2234 6.88307 27.9564 6.88281 27.6543V11.038C6.8834 10.7361 7.07357 10.4694 7.35277 10.3789L22.1227 5.53252C22.255 5.48916 22.3973 5.48916 22.5295 5.53252C22.5295 5.53252 37.3394 10.3981 37.3586 10.4094C37.3861 10.4214 37.4127 10.4352 37.4385 10.4509C37.4841 10.4799 37.5262 10.5143 37.5641 10.5534ZM14.9163 9.34939L27.4707 13.4688L30.0677 12.6166L17.5131 8.49713L14.9163 9.34939ZM32.2818 11.8903L19.7279 7.77016L22.3241 6.91858L34.8786 11.038L32.2818 11.8903Z" fill="#A1A3A8"></path>
  <path d="M10.3594 20.9004C10.195 20.9004 10.0337 20.9693 9.9175 21.0892C9.80126 21.2091 9.73438 21.3755 9.73438 21.5455C9.73438 21.7144 9.80126 21.8808 9.9175 22.0012C10.0337 22.1211 10.195 22.1895 10.3594 22.1895C10.5237 22.1895 10.685 22.1211 10.8013 22.0012C10.9175 21.8808 10.9844 21.7151 10.9844 21.5455C10.9844 21.3755 10.9175 21.2091 10.8013 21.0892C10.685 20.9693 10.5237 20.9004 10.3594 20.9004Z" fill="#A1A3A8"></path>
  <path d="M33.0686 20.2031C32.6978 20.2031 32.3972 20.5132 32.3972 20.8956V28.1134C32.3935 31.5531 29.6904 34.3406 26.355 34.3444H18.2986C17.9278 34.3444 17.6272 34.6544 17.6272 35.0368V36.4761L12.7558 32.9597L17.6272 29.4433V30.8826C17.6272 31.265 17.9278 31.5751 18.2986 31.5751H24.3408C26.5647 31.5727 28.3668 29.7143 28.369 27.4209V27.1267C28.369 26.7443 28.0684 26.4342 27.6976 26.4342C27.3268 26.4342 27.0263 26.7443 27.0263 27.1267V27.4209C27.0263 28.9505 25.8239 30.1903 24.3408 30.1903H18.9699V28.1134C18.9698 27.731 18.669 27.4212 18.2983 27.4213C18.1608 27.4215 18.0266 27.465 17.9139 27.5463L11.2003 32.3926C10.8966 32.6121 10.8229 33.0438 11.0356 33.3569C11.0805 33.4229 11.1363 33.4804 11.2003 33.5267L17.9139 38.3731C18.2178 38.5922 18.6363 38.5158 18.8487 38.2024C18.9275 38.0862 18.9699 37.9479 18.9699 37.8062V35.7291H26.355C30.4315 35.7241 33.7351 32.3173 33.7399 28.1134V20.8956C33.7399 20.5132 33.4392 20.2031 33.0686 20.2031Z" fill="#A1A3A8"></path>
  <path d="M18.8483 16.7754H12.1328V18.7977H16.5751L13.158 27.5004H15.3271L18.8483 18.568V16.7754Z" fill="#A1A3A8"></path>
</svg>
